<?xml version="1.0" encoding="utf-8"?>
<!-- Generator: Adobe Illustrator 22.0.1, SVG Export Plug-In . SVG Version: 6.00 Build 0)  -->
<svg version="1.1" id="Camada_1" xmlns="http://www.w3.org/2000/svg" xmlns:xlink="http://www.w3.org/1999/xlink" x="0px" y="0px"
	 viewBox="0 0 150 150" style="enable-background:new 0 0 150 150;" xml:space="preserve">
<style type="text/css">
	.st0{fill:#FFFFFF;stroke:#000000;stroke-miterlimit:10;}
</style>
<g>
	<path class="st0" d="M87.2,39.6c-0.5,0-1.1-0.2-1.5-0.6c-10.4-10.3-26.3-12.6-39.1-5.6c-1,0.5-2.3,0.2-2.8-0.8
		c-0.5-1-0.2-2.3,0.8-2.8c14.5-7.8,32.4-5.3,44,6.3c0.6,0.6,0.8,1.5,0.4,2.2C88.8,39.1,88,39.6,87.2,39.6z"/>
	<path class="st0" d="M37.6,39.6c-0.8,0-1.6-0.5-1.9-1.3c-0.3-0.8-0.1-1.7,0.4-2.2c0.7-0.7,1.4-1.4,2.2-2c0.9-0.7,2.2-0.6,2.9,0.2
		c0.7,0.9,0.6,2.2-0.2,2.9c-0.7,0.6-1.3,1.2-1.9,1.8C38.7,39.4,38.2,39.6,37.6,39.6z"/>
	<path class="st0" d="M136.5,121.9l-32.6-32.6c11.5-17.7,10.5-40.8-2.5-57.4c-13-16.6-35.1-23.2-55.1-16.3S12.9,41.3,12.9,62.4
		c0,18.2,9.9,34.9,25.8,43.5s35.4,7.9,50.6-2.1l32.6,32.6c0.8,0.8,2.1,0.8,2.9,0l11.6-11.7C137.3,124,137.3,122.7,136.5,121.9
		L136.5,121.9z M30.3,94.4c-17-17-17.8-44.3-1.8-62.2c16-18,43.2-20.3,62-5.4c18.8,14.9,22.8,41.9,9,61.6c-3,4.3-6.8,8.1-11.1,11.2
		C70.4,112.2,45.9,110.1,30.3,94.4z M123.4,132.1l-30.6-30.6c0.3-0.3,0.6-0.5,1-0.8c0.3-0.2,0.6-0.5,0.8-0.7c1-0.8,1.9-1.7,2.8-2.6
		c0.9-0.9,1.8-1.9,2.6-2.8c0.2-0.3,0.5-0.6,0.7-0.8c0.3-0.3,0.5-0.6,0.8-1l30.6,30.6L123.4,132.1z"/>
</g>
</svg>
